<svg xmlns="http://www.w3.org/2000/svg" width="192" height="192" viewBox="0 0 192 192" fill="none">
  <rect width="192" height="192" rx="40" fill="url(#bg)"/>

  <!-- Leaf motif -->
  <path d="M132 42C132 42 156 78 144 114C132 150 102 156 84 144C66 132 60 102 72 72C84 42 132 42 132 42Z" fill="white" opacity="0.1"/>
  <path d="M120 54C120 54 138 84 129 111C120 138 99 144 84 132C69 120 66 99 75 78C84 57 120 54 120 54Z" fill="white" opacity="0.07"/>

  <!-- ₱ symbol -->
  <text x="96" y="134" font-family="Arial, sans-serif" font-size="108" font-weight="800" fill="white" text-anchor="middle" letter-spacing="-3">₱</text>

  <!-- Growth arrow -->
  <path d="M138 54L150 42L162 54" stroke="white" stroke-width="7" stroke-linecap="round" stroke-linejoin="round" opacity="0.7"/>
  <line x1="150" y1="42" x2="150" y2="72" stroke="white" stroke-width="7" stroke-linecap="round" opacity="0.7"/>

  <defs>
    <linearGradient id="bg" x1="0" y1="0" x2="192" y2="192" gradientUnits="userSpaceOnUse">
      <stop offset="0%" stop-color="#4A7C6F"/>
      <stop offset="100%" stop-color="#3B655A"/>
    </linearGradient>
  </defs>
</svg>
